/vscmnt/brussel_pixiu_data/_data_brussel/112/vsc11236/PredSimResults/SUBJ09_Dhondt2024_3seg/weighted/worker_04.mot
version=1
nRows=4
nColumns=124
inDegrees=yes
endheader
                time	         pelvis_tilt	         pelvis_list	     pelvis_rotation	           pelvis_tx	           pelvis_ty	           pelvis_tz	       hip_flexion_r	     hip_adduction_r	      hip_rotation_r	        knee_angle_r	       ankle_angle_r	    subtalar_angle_r	         mtp_angle_r	       hip_flexion_l	     hip_adduction_l	      hip_rotation_l	        knee_angle_l	       ankle_angle_l	    subtalar_angle_l	         mtp_angle_l	    lumbar_extension	      lumbar_bending	     lumbar_rotation	          arm_flex_r	           arm_add_r	           arm_rot_r	        elbow_flex_r	          arm_flex_l	           arm_add_l	           arm_rot_l	        elbow_flex_l	glut_med1_r/activation	glut_med2_r/activation	glut_med3_r/activation	glut_min1_r/activation	glut_min2_r/activation	glut_min3_r/activation	semimem_r/activation	semiten_r/activation	bifemlh_r/activation	bifemsh_r/activation	    sar_r/activation	add_long_r/activation	add_brev_r/activation	add_mag1_r/activation	add_mag2_r/activation	add_mag3_r/activation	    tfl_r/activation	   pect_r/activation	   grac_r/activation	glut_max1_r/activation	glut_max2_r/activation	glut_max3_r/activation	iliacus_r/activation	  psoas_r/activation	quad_fem_r/activation	    gem_r/activation	   peri_r/activation	rect_fem_r/activation	vas_med_r/activation	vas_int_r/activation	vas_lat_r/activation	med_gas_r/activation	lat_gas_r/activation	 soleus_r/activation	tib_post_r/activation	flex_dig_r/activation	flex_hal_r/activation	tib_ant_r/activation	per_brev_r/activation	per_long_r/activation	per_tert_r/activation	ext_dig_r/activation	ext_hal_r/activation	glut_med1_l/activation	glut_med2_l/activation	glut_med3_l/activation	glut_min1_l/activation	glut_min2_l/activation	glut_min3_l/activation	semimem_l/activation	semiten_l/activation	bifemlh_l/activation	bifemsh_l/activation	    sar_l/activation	add_long_l/activation	add_brev_l/activation	add_mag1_l/activation	add_mag2_l/activation	add_mag3_l/activation	    tfl_l/activation	   pect_l/activation	   grac_l/activation	glut_max1_l/activation	glut_max2_l/activation	glut_max3_l/activation	iliacus_l/activation	  psoas_l/activation	quad_fem_l/activation	    gem_l/activation	   peri_l/activation	rect_fem_l/activation	vas_med_l/activation	vas_int_l/activation	vas_lat_l/activation	med_gas_l/activation	lat_gas_l/activation	 soleus_l/activation	tib_post_l/activation	flex_dig_l/activation	flex_hal_l/activation	tib_ant_l/activation	per_brev_l/activation	per_long_l/activation	per_tert_l/activation	ext_dig_l/activation	ext_hal_l/activation	 ercspn_r/activation	 ercspn_l/activation	 intobl_r/activation	 intobl_l/activation	 extobl_r/activation	 extobl_l/activation	
          0.00000000	         -2.92939405	         -2.13667939	          2.70966800	          0.00000000	          0.98590561	         -0.00390468	         23.60690754	          3.42430366	          0.04772927	         -3.31385442	          4.62522485	         -5.77828961	          0.19062475	        -14.72493871	          0.42525297	          8.15243826	         -5.85560642	          5.88664690	         -2.83261945	         17.81859865	         -3.73394796	          1.29990214	         -1.31444679	        -12.33939937	        -13.45681124	         11.10968810	         30.36431715	          2.77322270	        -13.56034094	         18.28664986	         52.89781324	          0.01683815	          0.01434770	          0.01000193	          0.01434984	          0.01434905	          0.01000391	          0.03996745	          0.07514633	          0.20722294	          0.01000079	          0.01000117	          0.13265660	          0.15504175	          0.16587069	          0.16638033	          0.09878008	          0.01000098	          0.02006394	          0.05256574	          0.01198305	          0.02332497	          0.04142460	          0.01000026	          0.01000025	          0.01644029	          0.01000078	          0.01000031	          0.01000089	          0.05643946	          0.05715602	          0.04823114	          0.01000005	          0.01000018	          0.01000002	          0.01197893	          0.01197910	          0.01197907	          0.24650672	          0.20235549	          0.14456484	          0.13460956	          0.28731438	          0.03979732	          0.22452692	          0.10515222	          0.06411318	          0.32970175	          0.25338476	          0.16580855	          0.01000435	          0.01000129	          0.01000117	          0.05180079	          0.10151526	          0.01000033	          0.01000038	          0.01000062	          0.01000228	          0.01000134	          0.36967572	          0.01000148	          0.01000314	          0.01968721	          0.01199600	          0.01000626	          0.30142091	          0.49133589	          0.01197888	          0.01733844	          0.09297483	          0.21363355	          0.01000187	          0.01000189	          0.01000170	          0.38166272	          0.47592687	          0.36387182	          0.30790225	          0.35281560	          0.43824180	          0.01360301	          0.21922055	          0.26415775	          0.02059987	          0.01702497	          0.01475538	          0.01965960	          0.01000002	          0.04239561	          0.01000006	          0.07937401	          0.01000007	
          0.01187322	         -2.92389476	         -2.43924681	          2.83811985	          0.01622816	          0.98539298	         -0.00362445	         22.72246587	          3.97483454	          0.17088012	         -2.42158916	          3.65096949	         -6.02017029	          0.20816322	        -14.82752722	          0.09683396	          7.80069421	         -7.32288927	          5.07806490	         -2.60831626	         19.25571268	         -3.53930130	          1.76899095	         -1.40358645	        -13.00885003	        -13.45039887	         10.60684485	         29.96707103	          2.31635869	        -13.58982407	         18.28238766	         54.10778728	          0.01405656	          0.01197785	          0.01000035	          0.01197940	          0.01197889	          0.01000232	          0.03336502	          0.06273252	          0.17299053	          0.01000014	          0.01000071	          0.11796409	          0.23552307	          0.19616893	          0.19024677	          0.08246263	          0.01000121	          0.04230946	          0.04388287	          0.01000443	          0.01947203	          0.09389136	          0.01000037	          0.01000029	          0.01919091	          0.19221957	          0.05738305	          0.02466613	          0.12004536	          0.12070416	          0.10098436	          0.01000049	          0.01000032	          0.01327557	          0.01000007	          0.01000034	          0.01000035	          0.28518605	          0.19481224	          0.12070250	          0.18692924	          0.32868432	          0.03322301	          0.22034996	          0.08778147	          0.05352192	          0.27523713	          0.21152667	          0.13841762	          0.01000129	          0.01000034	          0.01000018	          0.04324352	          0.08474574	          0.04371084	          0.01000084	          0.01000074	          0.01000192	          0.01000065	          0.30860743	          0.06096249	          0.01000607	          0.01643626	          0.01001533	          0.01000113	          0.25181284	          0.41017005	          0.01000053	          0.01447458	          0.07761574	          0.17834238	          0.01000085	          0.01000083	          0.01000071	          0.34820019	          0.43574303	          0.33856072	          0.29645261	          0.35759557	          0.43057433	          0.01135585	          0.18300720	          0.26144482	          0.01719687	          0.01421251	          0.01231789	          0.01641192	          0.01399027	          0.03539201	          0.01000014	          0.06626170	          0.01000015	
          0.02374644	         -2.91312535	         -2.74734614	          2.94988262	          0.03277271	          0.98490846	         -0.00333954	         21.83198837	          4.49557349	          0.31751889	         -2.07180273	          2.25069633	         -6.23277973	          0.22822251	        -14.83915643	         -0.24034571	          7.41146301	         -8.96324185	          4.10114073	         -2.33349428	         20.76222078	         -3.32400160	          2.24963814	         -1.48531801	        -13.61542187	        -13.45494569	         10.28683581	         29.42905344	          1.79985966	        -13.61962264	         18.29266782	         55.23201914	          0.01173448	          0.01000012	          0.02723832	          0.01000051	          0.01000020	          0.01000026	          0.02785333	          0.05236969	          0.14441310	          0.01000453	          0.01000641	          0.11806033	          0.27474945	          0.26414098	          0.16580830	          0.06884026	          0.01000025	          0.03532516	          0.15649660	          0.01000202	          0.01625560	          0.07838090	          0.01434787	          0.01435029	          0.21371728	          0.16046563	          0.04790363	          0.02059141	          0.10021448	          0.10076446	          0.08430228	          0.01434938	          0.01435061	          0.01291759	          0.02038457	          0.01539354	          0.01719513	          0.24877925	          0.21436351	          0.14769650	          0.15604927	          0.28737739	          0.08590199	          0.18394895	          0.07328030	          0.04468030	          0.22976907	          0.17658330	          0.11555158	          0.01197737	          0.01005492	          0.01197879	          0.03609987	          0.07074622	          0.09474800	          0.01198151	          0.01198838	          0.01199810	          0.01500277	          0.25762679	          0.05089323	          0.01003447	          0.01372374	          0.01198004	          0.01198196	          0.21021426	          0.34241141	          0.01197899	          0.01208424	          0.06479393	          0.14888178	          0.04215088	          0.04060104	          0.03541107	          0.30363130	          0.39103924	          0.30338330	          0.28120623	          0.32209503	          0.40147375	          0.01000003	          0.15277557	          0.25711563	          0.01435604	          0.01186467	          0.01028310	          0.01370074	          0.01884497	          0.02954538	          0.01719022	          0.05531550	          0.01197900	
          0.03561965	         -2.89880983	         -3.07593116	          3.04245671	          0.04951136	          0.98448831	         -0.00309762	         20.90916526	          4.94732409	          0.52434490	         -1.92984490	          0.52540238	         -6.44453766	          0.22505252	        -14.73234637	         -0.59717329	          6.97305231	        -10.80183156	          2.93869909	         -2.02241619	         22.29830624	         -3.09655503	          2.76237936	         -1.55576233	        -14.13671364	        -13.48368649	         10.17418398	         28.74093373	          1.24054588	        -13.63610485	         18.31453024	         56.26094626	          0.23035479	          0.21544494	          0.24197408	          0.20081749	          0.02079551	          0.23793296	          0.03697289	          0.04372741	          0.12055658	          0.01435379	          0.01004946	          0.09855721	          0.22936183	          0.22050596	          0.13841760	          0.05746835	          0.01004805	          0.02949021	          0.13064420	          0.01000054	          0.01357040	          0.06543278	          0.01197927	          0.01197986	          0.17841205	          0.13395767	          0.15095671	          0.01718982	          0.08365968	          0.08411881	          0.07037609	          0.01197895	          0.01197999	          0.01078377	          0.01701713	          0.01285070	          0.01435466	          0.41541056	          0.24342415	          0.12329966	          0.52892378	          0.40499331	          0.20242548	          0.23183205	          0.06117468	          0.03729928	          0.31697341	          0.14741255	          0.09646291	          0.01000526	          0.01000043	          0.01000042	          0.03013635	          0.05905944	          0.10627117	          0.01000270	          0.01000832	          0.01001712	          0.01252487	          0.21506967	          0.10045454	          0.01000217	          0.01145861	          0.01000395	          0.01000354	          0.17548779	          0.28586168	          0.01000045	          0.01008834	          0.05409022	          0.12428706	          0.03518787	          0.03389406	          0.02956142	          0.25347244	          0.32644156	          0.25326540	          0.25227482	          0.26888672	          0.33515236	          0.01000005	          0.17098163	          0.24678745	          0.01198454	          0.01000008	          0.01000028	          0.01907058	          0.03432286	          0.02466476	          0.01435046	          0.04617757	          0.01000032	
